<?xml version="1.0" encoding="UTF-8"?>
<svg id="Layer_2" xmlns="http://www.w3.org/2000/svg" viewBox="0 0 449.75 130.95">
  <defs>
    <style>
      .cls-1 {
        fill: #99ca3c;
      }
    </style>
  </defs>
  <g id="Layer_1-2" data-name="Layer_1">
    <path class="cls-1" d="M51.83,86.93l-24.55,29.64v12.55H0V1.82h27.28v71.84L86.75,1.82h35.46l-52.56,63.65,52.56,63.65h-35.46l-34.92-42.19Z"/>
    <path class="cls-1" d="M119.48,1.82h102.76v23.64h-75.48v24.92h68.2v23.64h-68.2v31.46h75.48v23.64h-102.76V1.82Z"/>
    <path class="cls-1" d="M322.45,1.82h35.46l-55.65,67.29v60.02h-27.28v-60.2L219.51,1.82h35.46l33.83,40.74L322.45,1.82Z"/>
    <path class="cls-1" d="M399.01,130.95c-29.65,0-52.74-15.28-61.47-40.74l28.37-3.82c5.64,13.82,16.55,20.92,32.19,20.92,13.46,0,22.55-5.27,22.55-13.28,0-22.92-76.75-18.55-76.75-60.38,0-20.55,18.55-33.65,47.29-33.65,30.92,0,53.29,15.1,57.83,39.28l-28.37,3.82c-2.18-12.19-11.82-19.28-26.19-19.28-11.82,0-21.28,5.09-21.28,11.28,0,16.91,76.57,18.91,76.57,59.47,0,21.28-21.1,36.37-50.74,36.37Z"/>
  </g>
</svg>