<?xml version="1.0" encoding="iso-8859-1"?>
<!-- Generator: Adobe Illustrator 29.3.1, SVG Export Plug-In . SVG Version: 9.03 Build 55982)  -->
<svg version="1.1" id="Capa_1" xmlns="http://www.w3.org/2000/svg" xmlns:xlink="http://www.w3.org/1999/xlink" x="0px" y="0px"
	 viewBox="0 0 512 512" style="enable-background:new 0 0 512 512;" xml:space="preserve">
<g>
	<g>
		<path d="M434,256c0,98.149-79.851,178-178,178S78,354.149,78,256S157.851,78,256,78c40.076,0,77.918,13.006,109.437,37.613
			l13.538-17.341C343.553,70.617,301.029,56,256,56C145.72,56,56,145.72,56,256s89.72,200,200,200s200-89.72,200-200
			c0-30.668-6.77-60.11-20.121-87.507l-19.776,9.638C427.979,202.5,434,228.699,434,256z"/>
		<path d="M476.801,126.407l-18.963,11.153C478.878,173.336,490,214.292,490,256c0,62.504-24.34,121.267-68.537,165.463
			C377.266,465.66,318.503,490,256,490s-121.266-24.34-165.463-68.537C46.34,377.267,22,318.504,22,256
			c0-62.503,24.34-121.266,68.537-165.463S193.497,22,256,22c54.317,0,107.243,19.031,149.027,53.587l14.021-16.953
			C373.328,20.823,315.424,0,256,0C187.62,0,123.333,26.628,74.981,74.981C26.628,123.333,0,187.62,0,256
			c0,68.38,26.628,132.667,74.981,181.02C123.333,485.372,187.62,512,256,512s132.667-26.628,181.019-74.98
			C485.372,388.668,512,324.38,512,256C512,210.373,499.828,165.561,476.801,126.407z"/>
	</g>
	<path style="fill:#33CCCC;" d="M508.778,90.524l-60.077-60.077c-2.063-2.062-4.861-3.222-7.778-3.222s-5.715,1.159-7.778,3.222
		L247.518,216.074l-57.591-57.591c-2.063-2.063-4.861-3.222-7.778-3.222s-5.715,1.159-7.778,3.222l-60.077,60.078
		c-4.295,4.296-4.295,11.261,0,15.557L239.74,359.564c2.063,2.063,4.861,3.222,7.778,3.222s5.715-1.159,7.778-3.222l253.482-253.483
		C513.074,101.785,513.074,94.82,508.778,90.524z M247.518,336.229l-109.89-109.89l44.521-44.521l57.591,57.591
		c2.063,2.062,4.861,3.222,7.778,3.222s5.715-1.159,7.778-3.222L440.923,53.781l44.521,44.521L247.518,336.229z"/>
</g>
<g>
</g>
<g>
</g>
<g>
</g>
<g>
</g>
<g>
</g>
<g>
</g>
<g>
</g>
<g>
</g>
<g>
</g>
<g>
</g>
<g>
</g>
<g>
</g>
<g>
</g>
<g>
</g>
<g>
</g>
</svg>
