<?xml version="1.0" encoding="iso-8859-1"?>
<!-- Generator: Adobe Illustrator 28.1.0, SVG Export Plug-In . SVG Version: 6.00 Build 0)  -->
<svg version="1.1" id="Layer_1" xmlns="http://www.w3.org/2000/svg" xmlns:xlink="http://www.w3.org/1999/xlink" x="0px" y="0px"
	 viewBox="0 0 512 512" style="enable-background:new 0 0 512 512;" xml:space="preserve">
<g>
	<g>
		<g>
			<g>
				<g>
					<g>
						<g>
							<path style="fill:#33CCCC;" d="M376.871,388.457c-2.824,0-5.647-1.081-7.797-3.241l-8.429-8.47
								c-4.285-4.306-4.269-11.271,0.038-15.556c4.305-4.286,11.271-4.269,15.556,0.038l8.429,8.47
								c4.285,4.306,4.269,11.271-0.038,15.556C382.484,387.389,379.677,388.457,376.871,388.457z"/>
						</g>
					</g>
				</g>
				<g>
					<g>
						<g>
							<path style="fill:#33CCCC;" d="M406.513,325.995c-0.003,0-0.006,0-0.01,0l-9.043-0.008
								c-6.075-0.005-10.995-4.935-10.99-11.009c0.005-6.072,4.93-10.991,11-10.991c0.003,0,0.006,0,0.01,0l9.043,0.008
								c6.075,0.005,10.995,4.935,10.99,11.009C417.508,321.076,412.583,325.995,406.513,325.995z"/>
						</g>
					</g>
				</g>
				<g>
					<g>
						<g>
							<path style="fill:#33CCCC;" d="M314.71,418.241c-6.071,0-10.995-4.919-11-10.992l-0.007-9.086
								c-0.005-6.075,4.917-11.004,10.992-11.008c0.002,0,0.005,0,0.008,0c6.071,0,10.995,4.919,11,10.992l0.007,9.086
								c0.005,6.075-4.917,11.004-10.992,11.008C314.716,418.241,314.712,418.241,314.71,418.241z"/>
						</g>
					</g>
				</g>
			</g>
			<g>
				<g>
					<g>
						<g>
							<path style="fill:#33CCCC;" d="M143.558,154.013c-2.824,0-5.647-1.081-7.797-3.241l-8.429-8.47
								c-4.286-4.306-4.269-11.271,0.038-15.556c4.306-4.285,11.271-4.269,15.556,0.038l8.429,8.47
								c4.286,4.306,4.269,11.271-0.038,15.556C149.171,152.946,146.364,154.013,143.558,154.013z"/>
						</g>
					</g>
				</g>
				<g>
					<g>
						<g>
							<path style="fill:#33CCCC;" d="M114.53,208.013c-0.003,0-0.006,0-0.009,0l-9.042-0.008
								c-6.075-0.005-10.996-4.935-10.991-11.009c0.005-6.072,4.929-10.991,11-10.991c0.003,0,0.006,0,0.009,0l9.042,0.008
								c6.075,0.005,10.996,4.935,10.991,11.009C125.525,203.094,120.601,208.013,114.53,208.013z"/>
						</g>
					</g>
				</g>
				<g>
					<g>
						<g>
							<path style="fill:#33CCCC;" d="M197.297,124.845c-6.071,0-10.995-4.919-11-10.991l-0.007-9.086
								c-0.005-6.075,4.916-11.004,10.991-11.009c0.003,0,0.006,0,0.009,0c6.071,0,10.995,4.919,11,10.991l0.007,9.086
								c0.005,6.075-4.916,11.004-10.991,11.009C197.303,124.845,197.3,124.845,197.297,124.845z"/>
						</g>
					</g>
				</g>
			</g>
		</g>
		<path d="M493.011,81.349l-63.127-63.432C418.386,6.363,403.095,0,386.827,0c-0.001,0,0,0-0.001,0
			c-16.268,0-31.561,6.363-43.059,17.917L232.2,130.025c-22.852,22.963-23.67,59.812-2.454,83.769l-15.752,15.828
			c-11.143-9.944-25.343-15.379-40.378-15.379c-0.001,0,0,0,0,0c-16.267,0-31.561,6.364-43.059,17.917L18.99,344.268
			c-23.701,23.816-23.701,62.567,0,86.383l63.126,63.432C93.614,505.637,108.906,512,125.175,512
			c16.268,0,31.56-6.363,43.058-17.917L279.8,381.975c22.853-22.963,23.671-59.812,2.454-83.769l15.752-15.828
			c11.143,9.944,25.344,15.379,40.379,15.379c16.269,0,31.561-6.363,43.059-17.917l111.567-112.107
			C516.711,143.917,516.711,105.165,493.011,81.349z M361.142,187.748c-1.86-8.876-6.212-17.325-13.057-24.204
			c-6.722-6.754-15.078-11.272-24.174-13.183l62.915-63.219l37.219,37.399L361.142,187.748z M295.347,179.063
			c4.964-4.988,11.56-7.735,18.572-7.735s13.608,2.747,18.572,7.735c10.282,10.332,10.282,27.143,0,37.475L216.653,332.937
			c-4.964,4.988-11.56,7.735-18.572,7.735c-7.012,0-13.608-2.747-18.572-7.735c-10.282-10.332-10.282-27.143,0-37.475
			L295.347,179.063z M150.858,324.252c1.86,8.876,6.212,17.325,13.057,24.204c6.722,6.755,15.078,11.273,24.174,13.183
			l-62.915,63.219l-37.219-37.399L150.858,324.252z M264.206,366.457L152.639,478.564C145.3,485.938,135.547,490,125.174,490
			c-10.372,0-20.125-4.061-27.465-11.436l-63.126-63.432c-15.186-15.259-15.186-40.087,0-55.346l111.567-112.107
			c7.339-7.375,17.093-11.436,27.465-11.436c9.171,0,17.86,3.177,24.822,9.011L64.64,379.7c-4.271,4.292-4.271,11.227,0,15.519
			l52.738,52.993c2.064,2.075,4.87,3.241,7.797,3.241s5.732-1.166,7.797-3.241l133.715-134.363
			C279.34,329.208,278.514,352.08,264.206,366.457z M477.417,152.214L365.85,264.321c-7.339,7.375-17.093,11.436-27.465,11.436
			c-9.172,0-17.86-3.177-24.823-9.011L447.36,132.3c4.271-4.292,4.271-11.227,0-15.519l-52.737-52.993
			c-2.064-2.075-4.87-3.241-7.797-3.241s-5.732,1.166-7.797,3.241L245.313,198.151c-12.653-15.359-11.827-38.231,2.48-52.608
			L359.361,33.436C366.7,26.061,376.454,22,386.826,22s20.125,4.062,27.464,11.436l63.127,63.432
			C492.602,112.126,492.602,136.955,477.417,152.214z"/>
	</g>
</g>
<g>
</g>
<g>
</g>
<g>
</g>
<g>
</g>
<g>
</g>
<g>
</g>
<g>
</g>
<g>
</g>
<g>
</g>
<g>
</g>
<g>
</g>
<g>
</g>
<g>
</g>
<g>
</g>
<g>
</g>
</svg>
