<?xml version="1.0" encoding="iso-8859-1"?>
<!-- Generator: Adobe Illustrator 27.2.0, SVG Export Plug-In . SVG Version: 6.00 Build 0)  -->
<svg version="1.1" id="Capa_1" xmlns="http://www.w3.org/2000/svg" xmlns:xlink="http://www.w3.org/1999/xlink" x="0px" y="0px"
	 viewBox="0 0 512 512" style="enable-background:new 0 0 512 512;" xml:space="preserve">
<g>
	<g>
		<path style="fill:#33CCCC;" d="M275.937,173.091c6.721-2.675,12.894-6.706,18.163-11.975c21.012-21.012,21.012-55.2,0-76.212
			c-21.014-21.012-55.201-21.011-76.213-0.001c-10.179,10.179-15.784,23.712-15.784,38.106c0,14.396,5.606,27.929,15.784,38.106
			c0,0-0.001-0.001,0,0c5.269,5.269,11.442,9.3,18.163,11.975c-32.868,8.812-57.144,38.847-57.144,74.457v63.673
			c0,6.075,4.925,11,11,11c6.075,0,11-4.925,11-11v-63.673c0-30.375,24.712-55.087,55.087-55.087s55.087,24.712,55.087,55.087
			v63.673c0,6.075,4.925,11,11,11s11-4.925,11-11v-63.673C333.08,211.937,308.805,181.903,275.937,173.091z M233.536,145.463
			c-5.802-5.804-9.433-13.777-9.433-22.454c0-17.366,14.54-31.875,31.889-31.875c17.222,0,31.891,14.711,31.891,31.875
			c0,17.277-14.666,31.89-31.889,31.89C247.31,154.9,239.338,151.266,233.536,145.463z"/>
		<g>
			<path d="M255.994,336.739c-92.84,0-168.37-75.53-168.37-168.369C87.623,75.53,163.154,0,255.994,0
				c92.839,0,168.369,75.53,168.369,168.37C424.363,261.209,348.832,336.739,255.994,336.739z M255.994,22
				c-80.709,0-146.37,65.661-146.37,146.37c0,80.708,65.661,146.369,146.37,146.369c80.708,0,146.369-65.661,146.369-146.369
				C402.363,87.661,336.702,22,255.994,22z"/>
		</g>
	</g>
	<g>
		<g>
			<g>
				<g>
					<g>
						<path d="M381.882,512c-2.891,0-5.738-1.139-7.857-3.298c-3.309-3.374-4.093-8.485-1.947-12.696l58.6-115.007
							c1.866-3.662,5.618-5.978,9.729-6.006c0.024,0,0.049,0,0.072,0c4.083,0,7.832,2.262,9.734,5.878l60.154,114.314
							c2.199,4.179,1.485,9.295-1.773,12.713c-3.26,3.419-8.337,4.375-12.614,2.376l-55.056-25.705l-54.242,26.326
							C385.151,511.64,383.51,512,381.882,512z M440.636,409.914l-34.078,66.881l29.472-14.305c2.98-1.446,6.454-1.473,9.456-0.07
							l30.2,14.1L440.636,409.914z"/>
					</g>
				</g>
			</g>
		</g>
		<g>
			<path d="M266.392,510.797c-18.395,0.001-35.521-7.418-48.215-20.903c-12.708-13.501-19.349-31.856-18.241-50.396
				c0.71-36.019,30.492-65.272,66.541-65.327c17.763-0.416,34.711,6.449,47.694,19.308c12.875,12.751,20.116,30.05,19.875,47.474
				v58.846c0,6.075-4.925,11-11,11h-56.439C266.536,510.797,266.463,510.797,266.392,510.797z M266.579,396.17
				c-24.242,0-44.268,19.704-44.65,43.937c-0.003,0.176-0.01,0.352-0.021,0.526c-0.801,12.575,3.678,25.034,12.289,34.182
				c8.49,9.02,19.933,13.982,32.232,13.982c0.048,0,0.095,0,0.144,0h45.474v-47.925c0-0.056,0-0.112,0.001-0.168
				c0.176-11.498-4.692-23.015-13.356-31.596c-8.724-8.64-20.018-13.238-31.808-12.942c-0.094,0.003-0.186-0.01-0.28,0.004
				C266.595,396.17,266.585,396.17,266.579,396.17z"/>
		</g>
		<g>
			<path d="M81.769,510.797c-2.538,0-5.075-0.874-7.13-2.623l-57.368-48.829c-15.407-12.96-20.802-32.939-14.03-52.103
				c7.167-20.282,25.504-33.661,46.715-34.086c11.588-0.322,22.722,3.256,31.813,10.006c9.093-6.75,20.244-10.323,31.883-10.004
				c21.139,0.423,39.478,13.807,46.644,34.093c6.776,19.182,1.381,39.176-14.075,52.188c-1.166,0.99-57.328,48.739-57.328,48.739
				C86.841,509.924,84.305,510.797,81.769,510.797z M51.289,395.14c-0.271,0-0.542,0.003-0.814,0.011
				c-14.611,0.292-23.389,10.645-26.49,19.421c-3.696,10.461-0.893,20.92,7.498,27.979l50.291,42.806l49.579-42.151
				c0.236-0.201,0.471-0.39,0.705-0.568l-0.015-0.018c8.408-7.07,11.216-17.552,7.512-28.039
				c-3.101-8.78-11.881-19.136-26.417-19.427c-8.934-0.268-17.295,3.448-23.017,10.12c-2.09,2.437-5.14,3.839-8.35,3.839l0,0
				c-3.211,0-6.26-1.402-8.35-3.839C67.873,398.805,59.844,395.14,51.289,395.14z"/>
		</g>
	</g>
</g>
<g>
</g>
<g>
</g>
<g>
</g>
<g>
</g>
<g>
</g>
<g>
</g>
<g>
</g>
<g>
</g>
<g>
</g>
<g>
</g>
<g>
</g>
<g>
</g>
<g>
</g>
<g>
</g>
<g>
</g>
</svg>
