<?xml version="1.0" encoding="utf-8"?>
<!-- Generator: Adobe Illustrator 26.0.3, SVG Export Plug-In . SVG Version: 6.00 Build 0)  -->
<svg version="1.0" id="katman_1" xmlns="http://www.w3.org/2000/svg" xmlns:xlink="http://www.w3.org/1999/xlink" x="0px" y="0px"
	 viewBox="0 0 3599.3 2488.8" style="enable-background:new 0 0 3599.3 2488.8;" xml:space="preserve">
<style type="text/css">
	.st0{fill-rule:evenodd;clip-rule:evenodd;}
</style>
<path d="M1066.6,1131.6h34.7l97.2,225.5h-45.9l-21-51.6h-97.8l-20.4,51.6h-44.9L1066.6,1131.6z M1117.6,1271.1l-34.7-91.7
	l-35.4,91.7H1117.6z"/>
<path d="M1241.5,1131.6h46.2l61.5,170.4l63.4-170.4h43.3l-91.1,225.5h-34.7L1241.5,1131.6z"/>
<path d="M1599.4,1131.6h34.7l97.1,225.5h-45.9l-21-51.6h-97.8l-20.4,51.6h-44.9L1599.4,1131.6z M1650.3,1271.1l-34.7-91.7
	l-35.4,91.7H1650.3z"/>
<path d="M1820,1131.6h40.1v189.2h95.9v36.3h-136V1131.6z"/>
<path d="M2121.9,1131.6h34.7l97.2,225.5h-45.9l-21-51.6H2089l-20.4,51.6h-44.9L2121.9,1131.6z M2172.8,1271.1l-34.7-91.7l-35.4,91.7
	H2172.8z"/>
<path d="M2342.5,1131.6h53.2l109.3,167.6h0.6v-167.6h40.1v225.5h-51l-111.5-173h-0.6v173h-40.1V1131.6z"/>
<path d="M2814.6,1184.5c-8.3-8.9-16.3-14.9-24.2-17.8c-7.6-3-15.4-4.5-23.2-4.5c-11.7,0-22.3,2.1-31.9,6.4
	c-9.3,4-17.4,9.8-24.2,17.2c-6.8,7.2-12.1,15.7-15.9,25.5c-3.6,9.8-5.4,20.3-5.4,31.5c0,12.1,1.8,23.3,5.4,33.4
	c3.8,10.2,9.1,19,15.9,26.4c6.8,7.4,14.9,13.3,24.2,17.5c9.6,4.2,20.2,6.4,31.9,6.4c9.1,0,17.9-2.1,26.4-6.4
	c8.7-4.5,16.8-11.5,24.2-21l33.1,23.6c-10.2,14-22.6,24.2-37.3,30.6c-14.6,6.4-30.3,9.6-46.8,9.6c-17.4,0-33.4-2.8-48.1-8.3
	c-14.4-5.7-27-13.7-37.6-23.9c-10.4-10.4-18.6-22.8-24.5-37.3c-5.9-14.4-8.9-30.5-8.9-48.1c0-18.1,3-34.4,8.9-49.1
	c5.9-14.9,14.1-27.5,24.5-37.9c10.6-10.4,23.1-18.4,37.6-23.9c14.6-5.7,30.7-8.6,48.1-8.6c15.3,0,29.4,2.8,42.4,8.3
	c13.2,5.3,25.4,14.4,36.6,27.4L2814.6,1184.5z"/>
<path d="M2941.5,1131.6h40.1v89.8h105.4v-89.8h40.1v225.5h-40.1v-99.4h-105.4v99.4h-40.1V1131.6z"/>
<path d="M3241.4,1131.6h149.4v36.3h-109.3v55.4H3385v36.3h-103.5v61.2h115v36.3h-155.1V1131.6z"/>
<path class="st0" d="M849.7,1244.4c0,178.7-144.8,323.5-323.5,323.5s-323.5-144.8-323.5-323.5s144.8-323.5,323.5-323.5
	S849.7,1065.7,849.7,1244.4z M434.5,1373.1h-62.8c-13.2,0-19.7,0-23.7-2.5c-4.3-2.8-6.9-7.4-7.2-12.5c-0.2-4.7,3-10.4,9.5-21.9
	l155-273.2c6.6-11.6,9.9-17.4,14.1-19.6c4.5-2.3,9.9-2.3,14.5,0c4.2,2.1,7.5,7.9,14.1,19.6l31.9,55.6l0.2,0.3l0,0
	c7.1,12.4,10.7,18.8,12.3,25.4c1.7,7.2,1.7,14.9,0,22.1c-1.6,6.7-5.2,13-12.4,25.7L498.6,1336l-0.2,0.4
	c-7.2,12.6-10.8,18.9-15.8,23.7c-5.5,5.2-12.1,9.1-19.3,11.2C456.7,1373.1,449.3,1373.1,434.5,1373.1z M593,1373.1h90l0,0
	c13.3,0,19.9,0,23.9-2.6c4.3-2.8,7-7.5,7.2-12.6c0.2-4.5-3-10-9.2-20.8c-0.2-0.4-0.4-0.7-0.7-1.1l-45.1-77.1l-0.5-0.9
	c-6.3-10.7-9.5-16.1-13.6-18.2c-4.5-2.3-9.9-2.3-14.4,0c-4.1,2.1-7.5,7.8-14.1,19.2l-44.9,77.1l-0.2,0.3c-6.6,11.3-9.9,17-9.6,21.7
	c0.3,5.1,2.9,9.8,7.2,12.6C573.1,1373.1,579.8,1373.1,593,1373.1z"/>
</svg>
